# xmcd
#
# Track frame offsets:
#	150
#	11205
#	24415
#	34690
#	52577
#	64227
#	76407
#	88612
#	100520
#	109980
#	138972
#	153630
#	168665
#	180540
#	193687
#
# Disc length: 2858 seconds
#
# Revision: 0
# Processed by: cddbd v1.5.2PL0 Copyright (c) Steve Scherf et al.
# Submitted via: EasyCDDAExtractor 10.0.5.1
#
DISCID=bb0b280f
DTITLE=Dwight Yoakam - Dwight Sings Buck
DYEAR=2007
DGENRE=Country
TTITLE0=My Heart Skips A Beat 
TTITLE1=Foolin' Around
TTITLE2=I Don't Care (Just As Long As You Love Me)
TTITLE3=Only You
TTITLE4=Act Naturally
TTITLE5=Down On The Corner Of Love
TTITLE6=Cryin' Time
TTITLE7=Above And Beyond
TTITLE8=Love's Gonna Live Here
TTITLE9=Close Up Honky Tonks
TTITLE10=Under Your Spell Again
TTITLE11=Your Tender Loving Care
TTITLE12=Excuse Me (I Think I've Got A Heartache)
TTITLE13=Think Of Me
TTITLE14=Together Again
EXTD=
EXTT0=
EXTT1=
EXTT2=
EXTT3=
EXTT4=
EXTT5=
EXTT6=
EXTT7=
EXTT8=
EXTT9=
EXTT10=
EXTT11=
EXTT12=
EXTT13=
EXTT14=
PLAYORDER=
